<?xml version="1.0" standalone="no"?>
<!DOCTYPE svg PUBLIC "-//W3C//DTD SVG 20010904//EN"
 "http://www.w3.org/TR/2001/REC-SVG-20010904/DTD/svg10.dtd">
<svg version="1.0" xmlns="http://www.w3.org/2000/svg"
 width="3542.000000pt" height="3542.000000pt" viewBox="0 0 3542.000000 3542.000000"
 preserveAspectRatio="xMidYMid meet">

<g transform="translate(0.000000,3542.000000) scale(0.100000,-0.100000)"
fill="#000000" stroke="none">
<path d="M24760 29580 c-20 -20 -20 -33 -20 -608 0 -648 -1 -632 60 -632 61 0
60 -15 60 630 0 514 -2 588 -16 608 -19 28 -57 29 -84 2z"/>
<path d="M23032 28394 c-12 -8 -22 -26 -22 -40 0 -13 51 -112 113 -219 118
-206 131 -220 183 -196 43 19 31 55 -82 252 -128 223 -142 238 -192 203z"/>
<path d="M26502 28393 c-29 -26 -232 -383 -232 -409 0 -41 52 -69 86 -46 22
14 234 392 234 416 0 24 -32 56 -56 56 -7 0 -21 -8 -32 -17z"/>
<path d="M24620 27694 c-480 -44 -922 -220 -1290 -514 -107 -86 -307 -290
-387 -395 -236 -313 -386 -656 -453 -1035 -28 -159 -38 -466 -21 -634 22 -205
78 -437 152 -623 16 -41 29 -78 29 -83 0 -7 -2109 -10 -5987 -10 l-5988 0 -38
-70 -37 -70 6063 0 6064 0 45 -77 c25 -43 83 -139 130 -213 138 -218 368 -632
368 -662 0 -4 -960 -8 -2134 -8 l-2135 0 -83 33 c-327 132 -668 128 -1000 -9
l-57 -24 -4015 0 -4015 0 31 -75 30 -75 3859 0 3858 0 -93 -94 c-103 -103
-196 -234 -255 -359 -43 -91 -89 -228 -98 -294 l-6 -43 -3316 0 -3316 0 -50
-24 c-66 -30 -131 -104 -150 -170 -13 -45 -15 -329 -13 -2261 l3 -2210 30 -53
c32 -59 66 -91 129 -125 l41 -22 3925 -3 c4434 -2 3992 -11 4085 81 93 93 85
-62 85 1718 l0 1567 68 12 c96 16 232 63 340 117 l92 46 387 -394 c213 -217
445 -453 516 -525 147 -151 198 -184 291 -191 120 -10 223 43 283 144 22 37
28 62 31 129 4 73 1 88 -22 139 -27 59 -55 89 -843 885 l-224 226 51 99 c99
195 140 368 140 597 0 358 -122 658 -371 910 l-97 98 2046 -2 2045 -3 57 -135
c31 -74 80 -200 109 -280 29 -80 62 -160 74 -177 26 -39 88 -85 136 -101 25
-9 315 -12 1081 -12 766 0 1056 3 1081 12 48 16 110 62 136 101 12 17 45 97
74 177 29 80 78 206 110 280 l57 135 1019 0 1020 0 48 -30 c32 -20 56 -45 72
-74 l23 -44 0 -3616 0 -3617 -172 -171 c-149 -148 -183 -176 -243 -204 -122
-58 -274 -51 -395 18 -25 14 -151 130 -280 258 -157 154 -253 242 -290 262
-90 51 -179 73 -289 73 -175 0 -288 -47 -411 -170 -148 -148 -202 -342 -150
-544 41 -161 27 -144 689 -807 580 -581 609 -608 681 -643 101 -49 203 -70
305 -62 170 12 259 58 427 224 l128 125 0 -467 c0 -439 -1 -469 -19 -504 -22
-43 -53 -73 -98 -96 -29 -15 -640 -16 -7476 -16 l-7443 0 -23 73 c-190 595
-611 1240 -1096 1677 -634 571 -1390 921 -2215 1024 -98 13 -434 35 -532 36
-17 0 -18 175 -18 3538 l0 3538 -69 51 c-65 49 -69 51 -75 30 -3 -12 -6 -1630
-6 -3594 l0 -3573 -22 -4 c-13 -3 -66 -7 -118 -11 -196 -12 -457 -56 -687
-116 -62 -16 -114 -29 -117 -29 -4 0 -6 1645 -6 3656 l0 3657 -38 -7 c-20 -3
-54 -6 -74 -6 l-38 0 -2 -3677 -3 -3677 -40 -15 c-521 -188 -1004 -478 -1368
-819 l-59 -55 -604 604 -604 604 -2 691 -3 691 -478 484 c-263 266 -589 592
-724 724 -246 240 -246 240 -290 240 -38 0 -49 -5 -74 -33 l-29 -32 0 -660 0
-660 -659 0 c-645 0 -659 0 -684 -20 -35 -27 -51 -78 -37 -116 14 -39 1405
-1431 1447 -1450 27 -12 150 -14 705 -14 l673 0 603 -603 604 -604 -77 -86
c-1009 -1125 -1299 -2733 -748 -4147 56 -144 194 -429 269 -557 176 -300 357
-535 613 -796 1091 -1111 2704 -1490 4180 -982 599 206 1112 532 1564 994 245
251 444 513 616 813 l74 128 2154 0 2154 0 -6 -52 c-44 -373 -160 -670 -374
-958 -239 -322 -618 -579 -1006 -685 -220 -60 -184 -58 -1165 -64 -895 -6
-906 -6 -951 -27 -58 -27 -116 -85 -143 -143 -19 -43 -21 -63 -21 -271 0 -215
1 -227 24 -277 29 -65 91 -124 157 -149 48 -19 155 -19 5024 -19 4856 0 4976
0 5029 19 74 25 142 94 167 167 16 46 19 84 18 264 0 197 -2 213 -23 262 -26
58 -89 123 -148 150 -35 17 -102 18 -948 24 l-910 5 -125 28 c-672 146 -1194
606 -1415 1245 -37 110 -79 298 -91 414 l-6 67 4040 0 c3535 0 4050 2 4125 15
538 94 940 523 997 1065 6 60 10 880 10 2230 l0 2135 568 570 c609 610 606
608 648 750 22 77 22 210 -1 295 -26 99 -72 177 -151 257 -124 126 -302 189
-464 165 -176 -25 -247 -68 -452 -270 l-148 -145 -3 3169 c-2 3004 -4 3173
-21 3244 -29 122 -74 250 -117 330 -181 336 -491 560 -866 625 -71 12 -225 15
-914 15 -484 0 -829 4 -829 9 0 5 16 50 35 101 52 132 100 306 126 455 21 114
24 161 24 390 0 229 -3 276 -24 390 -60 339 -183 645 -369 919 -231 343 -539
611 -907 791 -226 111 -450 182 -700 220 -97 15 -425 27 -515 19z m460 -128
c604 -82 1138 -393 1499 -873 383 -510 530 -1150 405 -1773 -56 -282 -166
-542 -346 -825 -276 -433 -497 -871 -652 -1295 -65 -175 -74 -193 -119 -220
-30 -19 -52 -20 -329 -20 l-298 0 0 439 0 439 351 788 c193 434 358 810 366
836 18 58 5 113 -37 161 -40 47 -261 147 -321 147 -84 0 -108 -24 -263 -255
-123 -184 -145 -210 -170 -213 -25 -3 -60 28 -340 306 -333 333 -335 334 -419
318 -67 -13 -93 -41 -237 -257 l-142 -211 -36 7 c-101 18 -139 17 -180 -4 -54
-28 -86 -81 -86 -145 -1 -46 34 -128 317 -764 l317 -712 0 -440 0 -440 -297 0
c-387 0 -353 -18 -448 240 -157 424 -372 853 -638 1272 -129 204 -164 266
-220 398 -222 525 -245 1059 -67 1593 268 805 968 1383 1820 1502 129 18 439
18 570 1z m-340 -2442 c157 -157 305 -299 329 -315 70 -45 154 -38 213 18 15
14 86 115 159 224 110 167 136 199 156 199 37 0 229 -95 243 -120 10 -19 -33
-121 -354 -845 l-366 -823 0 -481 0 -481 -320 0 -320 0 0 482 0 482 -321 724
c-291 655 -320 726 -310 749 11 23 15 24 54 18 95 -16 160 -11 195 14 20 14
91 109 173 232 112 169 144 209 162 209 16 0 103 -81 307 -286z m3983 -892
c392 -95 688 -382 795 -771 l27 -96 3 -3250 2 -3250 -472 -472 -473 -473 -5
3552 -5 3553 -31 65 c-38 80 -101 145 -174 179 l-55 26 -1002 3 c-552 1 -1003
5 -1003 8 0 3 34 71 74 152 86 169 199 365 331 572 51 80 102 164 114 188 l22
43 882 -4 c860 -3 884 -4 970 -25z m-10073 -908 c303 -54 590 -240 770 -499
144 -209 210 -425 210 -685 0 -239 -52 -425 -177 -633 -26 -43 -33 -63 -27
-77 5 -10 249 -262 542 -560 328 -333 539 -555 548 -575 20 -49 18 -129 -5
-173 -51 -99 -168 -140 -265 -92 -28 13 -212 194 -575 565 -294 300 -542 545
-551 545 -9 0 -52 -20 -96 -45 -172 -98 -334 -144 -540 -152 -282 -11 -507 52
-731 206 -246 168 -414 408 -490 700 -34 131 -43 365 -19 496 72 383 307 699
646 870 242 121 488 156 760 109z m-3289 -1623 c19 -19 29 -40 29 -58 0 -36
-1437 -3478 -1475 -3532 -41 -60 -74 -71 -209 -71 -112 0 -118 1 -143 26 -22
22 -25 32 -20 72 6 57 1413 3457 1454 3516 46 64 79 76 216 76 118 0 119 0
148 -29z m-2246 -603 c45 -20 55 -55 55 -184 0 -147 -15 -183 -99 -246 -31
-24 -303 -209 -603 -413 -301 -203 -547 -372 -548 -375 0 -3 260 -181 578
-397 352 -238 594 -409 619 -436 49 -54 56 -86 51 -242 -3 -103 -4 -108 -31
-131 -31 -26 -66 -31 -100 -13 -64 34 -1439 968 -1475 1003 -52 50 -62 83 -62
211 0 124 12 167 58 215 20 21 282 204 582 406 300 202 627 423 728 491 100
67 191 123 202 123 10 0 31 -5 45 -12z m2768 1 c52 -28 1436 -967 1471 -999
57 -51 66 -81 66 -222 0 -155 -14 -189 -103 -252 -34 -24 -370 -252 -747 -507
-455 -307 -696 -464 -716 -467 -76 -10 -104 41 -104 185 0 125 12 166 63 219
23 24 299 217 612 429 314 212 571 389 572 393 2 4 -256 182 -572 396 -316
214 -593 408 -615 431 -26 26 -45 57 -51 81 -12 55 -11 225 2 263 18 50 76 74
122 50z m-11436 -2931 l233 -233 0 -540 0 -540 -240 240 -240 240 0 532 c0
293 3 533 7 533 5 0 113 -105 240 -232z m923 -1463 l0 -540 -235 235 -235 235
0 540 0 540 235 -235 235 -235 0 -540z m25097 591 c132 -35 231 -115 288 -229
68 -137 69 -257 5 -396 -29 -62 -105 -140 -1343 -1378 -1231 -1231 -1316
-1314 -1377 -1342 -158 -73 -330 -55 -463 48 -90 70 -1162 1152 -1190 1201
-77 138 -81 293 -12 429 107 212 365 299 582 197 69 -33 97 -57 317 -274 255
-252 294 -281 421 -317 107 -32 264 -22 370 22 106 45 161 96 1100 1033 650
649 963 955 993 969 97 49 213 63 309 37z m-26182 -356 l240 -240 -540 0 -540
0 -232 232 c-128 128 -233 236 -233 240 0 5 240 8 533 8 l532 0 240 -240z
m690 -690 l240 -240 -540 0 -540 0 -232 232 c-128 128 -233 236 -233 240 0 5
240 8 533 8 l532 0 240 -240z m4760 -630 c374 -20 676 -75 1018 -186 1299
-424 2286 -1539 2546 -2877 50 -255 63 -384 68 -662 9 -470 -45 -835 -188
-1273 -347 -1061 -1162 -1926 -2204 -2342 -738 -294 -1549 -350 -2322 -160
-926 228 -1729 794 -2257 1590 -124 186 -186 296 -270 472 -172 360 -285 749
-343 1173 -25 186 -25 745 0 925 40 285 88 495 172 745 166 498 436 959 792
1353 l48 53 269 -270 269 -269 -65 -75 c-626 -718 -877 -1685 -683 -2632 139
-674 531 -1311 1075 -1745 699 -558 1586 -778 2476 -615 465 86 949 309 1334
615 135 107 363 335 470 470 417 524 643 1139 667 1810 25 718 -211 1431 -663
2000 -96 121 -391 412 -509 501 -438 333 -893 526 -1435 611 -126 19 -184 22
-435 22 -321 0 -453 -14 -705 -75 -486 -117 -926 -343 -1297 -667 l-75 -65
-269 269 -270 269 53 48 c658 593 1494 942 2363 986 83 5 157 9 165 9 8 1 101
-3 205 -8z m19801 -4630 c-46 -290 -209 -549 -447 -711 -82 -55 -226 -122
-324 -151 l-80 -23 -7737 -3 c-4256 -1 -7738 0 -7738 2 0 2 22 55 49 118 343
798 420 1688 220 2527 -16 68 -29 125 -29 127 0 2 3333 4 7408 4 6126 0 7417
3 7463 14 113 26 208 107 251 215 23 56 23 59 26 621 l3 565 472 473 472 472
3 -2077 c2 -1801 1 -2091 -12 -2173z m-19797 3650 c707 -48 1331 -331 1826
-825 431 -431 706 -978 802 -1595 26 -164 25 -646 0 -805 -104 -650 -378
-1182 -838 -1630 -420 -408 -948 -672 -1534 -766 -168 -27 -512 -37 -691 -20
-462 43 -915 203 -1292 454 -334 223 -586 474 -802 800 -344 515 -499 1087
-469 1721 29 595 261 1188 641 1640 46 54 87 105 93 112 8 11 72 -48 281 -257
l272 -272 -60 -71 c-88 -105 -191 -265 -259 -402 -215 -440 -265 -945 -143
-1429 64 -252 196 -522 363 -740 64 -84 252 -276 341 -348 244 -197 567 -349
875 -412 599 -124 1232 27 1704 405 106 85 281 261 352 355 207 271 346 593
406 940 24 140 24 500 0 640 -80 457 -271 830 -587 1145 -389 388 -903 600
-1455 600 -475 0 -930 -159 -1293 -453 -45 -37 -86 -67 -90 -67 -4 0 -126 119
-272 265 l-264 264 24 27 c42 45 220 184 328 256 289 190 567 312 894 392 298
73 556 96 847 76z m-19 -981 c238 -21 438 -77 655 -183 909 -441 1292 -1531
861 -2450 -192 -410 -556 -753 -979 -923 -137 -56 -337 -107 -477 -123 -149
-18 -425 -8 -564 20 -1192 237 -1842 1528 -1317 2616 75 156 125 234 260 404
l20 25 130 -130 131 -129 -144 -146 c-146 -146 -165 -175 -152 -226 13 -50 47
-70 230 -130 160 -53 176 -61 171 -79 -46 -153 -58 -219 -62 -345 -12 -315 86
-573 300 -797 136 -141 318 -248 512 -300 90 -24 118 -26 270 -26 152 0 181 3
270 26 119 31 292 115 386 186 225 171 383 441 420 717 17 126 6 306 -24 424
-106 406 -447 724 -854 795 -167 29 -394 15 -537 -35 -33 -11 -63 -17 -67 -13
-3 5 -32 86 -63 180 -63 188 -86 223 -147 223 -47 0 -65 -13 -214 -161 l-140
-139 -130 130 -129 130 34 29 c364 311 875 474 1350 430z m-33 -980 c302 -41
572 -253 686 -540 46 -114 60 -193 59 -329 0 -94 -5 -145 -21 -205 -83 -315
-331 -560 -643 -635 -102 -25 -284 -27 -388 -5 -131 27 -273 98 -387 193 -115
95 -232 286 -274 447 -31 115 -31 297 0 421 36 147 9 142 298 47 137 -46 262
-83 278 -83 40 0 74 25 91 67 14 33 12 43 -71 293 -48 143 -84 264 -80 270 8
13 127 48 200 59 86 12 162 13 252 0z m10693 -2755 c0 -50 31 -239 55 -335
149 -591 547 -1083 1087 -1344 l113 -55 -2650 0 -2649 0 125 63 c350 175 650
454 846 785 154 261 235 511 278 865 l6 47 1395 0 1394 0 0 -26z m3568 -1916
c22 -15 54 -49 69 -75 27 -46 28 -53 28 -188 0 -112 -3 -146 -17 -170 -21 -39
-64 -82 -103 -103 -28 -16 -387 -17 -4941 -17 l-4911 0 -49 30 c-37 23 -56 44
-76 84 -26 50 -28 64 -28 170 0 64 4 132 10 151 13 49 61 104 112 129 l43 21
4911 -2 4910 -3 42 -27z"/>
<path d="M24756 27278 c-9 -12 -16 -30 -16 -39 0 -36 32 -46 180 -58 251 -20
456 -74 668 -176 603 -289 1005 -888 1038 -1546 7 -136 17 -159 65 -159 19 0
34 8 45 25 14 21 14 40 5 165 -32 398 -163 745 -400 1055 -63 83 -221 245
-307 316 -162 133 -391 262 -579 329 -187 65 -429 110 -600 110 -75 0 -85 -2
-99 -22z"/>
<path d="M18285 22925 c-152 -28 -286 -97 -398 -204 -83 -80 -124 -134 -171
-227 -60 -119 -80 -210 -79 -354 0 -153 21 -239 90 -373 38 -75 65 -110 143
-188 85 -86 107 -102 200 -147 139 -68 215 -86 365 -85 147 1 237 23 366 89
109 56 226 162 295 266 282 424 95 1003 -381 1184 -136 51 -289 65 -430 39z
m340 -105 c203 -63 349 -188 440 -375 102 -210 98 -425 -13 -640 -55 -107
-191 -238 -302 -292 -47 -23 -97 -45 -112 -48 l-27 -7 -3 354 c-3 342 -4 354
-25 394 -31 58 -79 103 -138 130 -49 23 -56 24 -368 24 l-318 0 6 23 c38 124
202 313 330 379 77 39 151 65 223 78 76 14 229 4 307 -20z"/>
<path d="M21125 27484 c-10 -10 -15 -29 -13 -47 3 -29 28 -45 521 -330 543
-313 550 -317 577 -267 27 51 24 53 -515 364 -282 163 -522 296 -533 296 -11
0 -28 -7 -37 -16z"/>
<path d="M27905 27205 c-363 -210 -512 -301 -518 -317 -5 -13 -4 -32 2 -45 25
-54 30 -52 578 264 494 285 518 301 521 330 4 35 -19 63 -51 63 -12 0 -251
-133 -532 -295z"/>
<path d="M21283 25374 c-15 -24 -15 -29 -2 -53 l15 -26 239 -3 c235 -2 240 -2
258 19 22 27 22 52 -1 72 -16 15 -49 17 -255 17 l-237 0 -17 -26z"/>
<path d="M27803 25374 c-15 -24 -15 -29 -2 -53 l15 -26 244 0 244 0 15 26 c13
24 13 29 -2 53 l-17 26 -240 0 -240 0 -17 -26z"/>
<path d="M23705 22175 c-51 -18 -111 -85 -126 -139 -24 -90 12 -196 83 -243
l42 -28 1091 -3 1091 -2 47 30 c80 51 114 152 86 255 -15 52 -82 119 -134 134
-28 8 -350 11 -1090 11 -875 -1 -1057 -3 -1090 -15z m2166 -90 c79 -42 91
-147 23 -210 l-27 -25 -1059 0 c-908 0 -1063 2 -1087 15 -30 15 -61 69 -61
104 0 40 28 90 62 111 33 20 48 20 1076 20 922 0 1046 -2 1073 -15z"/>
<path d="M23854 21481 c-158 -72 -158 -320 0 -392 36 -16 68 -19 242 -19 l202
0 7 -47 c16 -106 94 -200 189 -228 74 -22 541 -21 615 1 97 28 176 123 188
225 l6 49 201 0 c174 0 206 3 242 19 159 72 159 320 -1 392 -38 18 -91 19
-945 19 -859 0 -907 -1 -946 -19z m1875 -97 c65 -54 61 -155 -8 -201 l-34 -23
-887 0 -887 0 -34 23 c-68 45 -72 148 -8 201 l31 26 898 0 898 0 31 -26z
m-527 -379 c-6 -34 -56 -89 -102 -112 -43 -22 -54 -23 -300 -23 -229 0 -259 2
-297 19 -44 21 -103 90 -103 123 0 17 16 18 403 16 396 -3 402 -3 399 -23z"/>
<path d="M24063 19703 c-33 -7 -79 -57 -87 -94 -3 -17 -6 -52 -6 -78 0 -25 -4
-52 -8 -58 -5 -7 -43 -22 -86 -33 -42 -11 -118 -36 -167 -56 l-90 -36 -62 66
c-61 65 -63 66 -113 66 -59 0 -57 1 -221 -143 -89 -78 -115 -106 -123 -136
-14 -52 0 -91 54 -155 25 -29 46 -58 46 -64 0 -6 -18 -40 -40 -75 -22 -35 -55
-100 -73 -143 -18 -44 -36 -85 -40 -91 -6 -9 -37 -13 -97 -13 -84 0 -92 -2
-120 -27 -40 -36 -47 -71 -56 -267 -6 -158 -6 -162 17 -190 30 -38 76 -56 142
-56 29 0 60 -6 68 -12 8 -7 25 -55 38 -107 l23 -93 -63 -64 c-96 -97 -93 -97
-245 -20 -71 36 -192 86 -269 111 -84 28 -147 55 -157 67 -15 17 -18 40 -18
139 0 135 -10 170 -59 212 -53 44 -91 48 -379 45 -259 -3 -268 -4 -304 -26
-68 -43 -82 -79 -86 -229 -4 -106 -7 -135 -21 -147 -9 -8 -72 -33 -141 -55
-69 -23 -189 -73 -267 -111 -77 -39 -147 -70 -153 -70 -7 0 -51 38 -99 85
-112 109 -176 135 -258 105 -32 -12 -407 -381 -429 -422 -16 -31 -19 -115 -4
-152 5 -15 48 -66 95 -115 57 -59 85 -96 85 -111 0 -13 -16 -52 -35 -88 -51
-93 -119 -256 -150 -358 -38 -129 -46 -134 -198 -134 -147 0 -187 -16 -225
-90 -22 -44 -23 -50 -20 -336 l3 -291 28 -36 c44 -58 71 -67 195 -67 114 0
167 -11 181 -39 5 -9 28 -74 52 -146 23 -71 71 -186 106 -255 35 -68 63 -135
63 -149 0 -16 -26 -50 -84 -110 -46 -47 -89 -96 -95 -108 -16 -31 -14 -119 4
-157 20 -42 382 -402 418 -415 37 -14 123 -14 150 0 12 6 61 49 108 95 59 58
94 84 110 84 13 0 82 -29 152 -64 71 -36 188 -84 260 -107 73 -23 139 -48 147
-56 11 -10 16 -47 21 -146 6 -149 16 -179 76 -224 l36 -28 291 -3 c289 -3 292
-3 336 21 72 38 90 84 90 227 0 142 9 160 98 185 106 29 226 77 343 136 64 33
127 59 140 59 17 0 45 -20 89 -66 93 -95 141 -124 207 -124 30 0 66 6 81 14
41 22 410 397 422 429 30 82 6 142 -105 257 -47 48 -85 96 -85 105 0 9 22 58
49 108 56 104 120 260 146 357 10 36 29 76 42 90 22 24 30 25 161 30 125 5
140 7 169 29 63 47 68 70 71 336 4 274 -1 331 -31 376 -45 67 -64 73 -217 79
-106 4 -143 9 -154 20 -8 8 -35 76 -59 151 -25 75 -75 196 -111 268 -47 94
-65 138 -60 155 3 13 27 44 53 70 l47 46 102 -42 102 -42 0 -92 c0 -85 2 -95
26 -123 34 -41 70 -49 266 -57 159 -6 167 -6 196 14 37 27 49 59 55 145 3 37
7 70 9 73 3 2 39 13 82 24 43 11 118 36 168 56 l92 36 48 -51 c27 -28 59 -57
71 -66 29 -20 97 -19 127 2 56 38 253 220 266 245 29 56 16 103 -50 177 -25
29 -46 54 -46 58 0 3 13 27 30 52 25 40 81 154 118 244 11 26 13 27 98 27 98
0 135 15 158 65 8 18 18 99 25 198 9 141 8 174 -4 203 -20 49 -67 74 -141 74
-33 0 -68 6 -77 13 -9 6 -26 47 -37 91 -11 43 -36 117 -56 163 l-37 85 67 62
c64 60 66 63 66 111 0 62 -11 79 -142 225 -138 153 -174 163 -280 77 -77 -63
-74 -62 -126 -28 -41 26 -154 81 -245 119 -27 12 -27 12 -25 99 3 78 0 92 -20
120 -29 41 -62 50 -207 58 -66 3 -138 8 -160 9 -22 2 -50 2 -62 -1z m208 -99
c70 -3 132 -10 139 -14 8 -5 13 -40 14 -103 1 -117 12 -132 122 -172 41 -15
111 -50 157 -77 127 -76 148 -76 245 1 38 31 68 48 78 44 23 -8 214 -231 214
-249 0 -8 -27 -41 -60 -72 -81 -76 -85 -101 -37 -214 20 -46 47 -125 61 -177
15 -56 34 -104 47 -118 27 -28 77 -43 145 -43 29 0 56 -5 62 -13 13 -15 -5
-316 -20 -334 -7 -9 -40 -13 -99 -13 -83 0 -91 -2 -118 -27 -17 -17 -43 -61
-61 -108 -17 -44 -51 -113 -75 -153 -24 -40 -47 -82 -50 -93 -13 -40 5 -86 55
-143 28 -32 50 -61 50 -66 0 -14 -39 -53 -144 -144 -54 -47 -104 -86 -111 -86
-7 0 -33 22 -58 49 -26 27 -56 56 -69 65 -32 23 -85 20 -146 -9 -58 -27 -204
-75 -229 -75 -31 0 -84 -33 -99 -62 -8 -16 -18 -64 -22 -106 l-7 -77 -159 3
c-88 2 -168 8 -178 13 -16 9 -18 22 -17 98 2 124 -4 132 -141 186 -36 14 -104
48 -151 75 -58 34 -98 50 -121 50 -34 0 -47 -7 -138 -77 -25 -19 -48 -30 -55
-25 -26 15 -215 237 -215 253 0 4 29 36 65 71 59 58 65 68 65 105 0 23 -13 68
-30 107 -17 37 -42 111 -56 164 -14 53 -32 108 -41 120 -21 33 -72 52 -141 52
-85 0 -86 2 -77 172 10 197 5 188 114 188 87 0 92 1 126 31 19 17 35 36 35 43
0 21 68 167 109 235 58 96 57 130 -9 209 -27 33 -50 68 -50 79 0 23 225 223
251 223 10 0 37 -23 61 -51 47 -56 83 -79 123 -79 14 0 67 18 118 39 50 22
126 47 167 57 41 10 86 24 99 33 33 21 51 70 51 140 0 70 17 95 59 87 14 -3
83 -8 152 -12z m-2075 -1327 c22 -26 24 -36 24 -145 0 -191 20 -215 235 -282
55 -17 163 -62 240 -100 77 -38 152 -72 166 -75 52 -13 109 13 181 82 l67 66
13 -28 c12 -26 10 -29 -55 -89 -66 -61 -67 -64 -67 -113 0 -57 -1 -55 143
-220 48 -55 99 -105 113 -112 50 -22 89 -14 144 32 88 71 86 70 110 57 22 -12
21 -13 -23 -58 -49 -50 -77 -104 -77 -149 0 -15 32 -91 70 -167 39 -77 89
-197 112 -267 22 -71 49 -143 60 -159 31 -52 86 -70 220 -70 109 0 119 -2 145
-24 l28 -24 0 -270 0 -270 -24 -26 c-23 -25 -30 -26 -130 -26 -125 0 -170 -11
-215 -50 -37 -33 -38 -36 -87 -190 -18 -58 -63 -166 -100 -240 -80 -161 -83
-169 -74 -223 6 -35 22 -56 90 -127 88 -90 105 -115 105 -151 0 -16 -56 -79
-192 -216 -239 -240 -225 -235 -356 -109 -102 98 -116 106 -178 106 -37 0 -65
-10 -138 -49 -109 -59 -239 -113 -355 -146 -143 -42 -171 -84 -171 -254 0
-120 -9 -153 -47 -170 -15 -7 -114 -11 -283 -11 -333 0 -312 -12 -320 187 -7
196 -7 196 -221 266 -75 25 -195 75 -266 111 -190 96 -218 93 -354 -40 -130
-127 -117 -130 -351 104 -180 179 -188 189 -188 227 0 35 8 47 85 125 133 137
135 160 35 361 -39 79 -88 197 -111 269 -63 200 -77 211 -277 219 -186 8 -172
-17 -172 321 l0 267 26 27 c26 25 30 26 146 26 190 0 212 17 278 220 23 73 73
194 111 269 72 142 84 194 58 244 -7 12 -49 61 -95 109 -126 131 -131 117 109
356 238 236 218 230 350 104 88 -85 132 -112 182 -112 12 0 86 32 164 71 78
39 203 90 278 115 197 64 213 83 213 252 0 60 5 124 11 142 20 56 42 60 332
57 l259 -2 24 -28z"/>
<path d="M24055 19040 c-75 -12 -192 -53 -264 -93 -31 -17 -97 -72 -147 -121
-75 -75 -99 -107 -137 -183 -63 -128 -81 -215 -74 -367 9 -203 71 -342 217
-488 72 -72 103 -94 181 -132 120 -58 197 -76 330 -76 288 0 534 151 659 405
57 117 73 190 73 325 0 174 -46 314 -148 449 -155 204 -437 319 -690 281z
m269 -106 c184 -48 336 -177 422 -357 171 -361 -38 -792 -435 -893 -91 -23
-263 -16 -351 15 -95 33 -200 102 -269 177 -232 253 -229 628 5 874 170 178
396 244 628 184z"/>
<path d="M21689 17314 c-374 -67 -690 -311 -854 -657 -301 -636 30 -1397 704
-1616 125 -41 219 -55 366 -55 146 1 249 18 385 66 219 78 406 215 549 403 71
94 164 287 198 410 25 92 27 114 27 290 0 174 -2 198 -27 288 -57 214 -150
378 -302 532 -180 183 -372 288 -618 336 -116 23 -313 24 -428 3z m398 -89
c398 -76 724 -365 846 -750 76 -240 58 -534 -47 -760 -109 -235 -286 -416
-521 -531 -417 -203 -898 -121 -1232 212 -230 229 -348 554 -314 864 46 428
316 773 721 921 45 16 116 36 158 43 104 19 292 19 389 1z"/>
</g>
</svg>
